<svg width="106" height="104" viewBox="0 0 106 104" fill="none" xmlns="http://www.w3.org/2000/svg">
<g clip-path="url(#clip0)">
<path d="M52.5729 103C81.0329 103 104.104 80.1665 104.104 52C104.104 23.8335 81.0329 1 52.5729 1C24.113 1 1.04167 23.8335 1.04167 52C1.04167 80.1665 24.113 103 52.5729 103Z" stroke="black" stroke-width="2"/>
<path d="M40.4479 67C52.1667 67 61.6667 57.598 61.6667 46C61.6667 34.402 52.1667 25 40.4479 25C28.7291 25 19.2292 34.402 19.2292 46C19.2292 57.598 28.7291 67 40.4479 67Z" stroke="black" stroke-width="2"/>
<path d="M62.6771 81C74.3959 81 83.8959 71.598 83.8959 60C83.8959 48.402 74.3959 39 62.6771 39C50.9583 39 41.4583 48.402 41.4583 60C41.4583 71.598 50.9583 81 62.6771 81Z" stroke="black" stroke-width="2"/>
</g>
<defs>
<clipPath id="clip0">
<rect width="105.083" height="104" fill="white" transform="translate(0.0312576)"/>
</clipPath>
</defs>
</svg>
