<svg width="107" height="104" viewBox="0 0 107 104" fill="none" xmlns="http://www.w3.org/2000/svg">
<g clip-path="url(#clip0)">
<path d="M53.5105 103C81.9704 103 105.042 80.1665 105.042 52C105.042 23.8335 81.9704 1 53.5105 1C25.0506 1 1.97925 23.8335 1.97925 52C1.97925 80.1665 25.0506 103 53.5105 103Z" stroke="black" stroke-width="2"/>
<path d="M14.1042 52.5787C41.6187 18.0627 81.2581 33.2499 92.9167 52.5787C76.1283 77.9827 29.96 81.5724 14.1042 52.5787Z" stroke="black" stroke-width="2"/>
<path d="M53.0053 64C59.4227 64 64.6251 58.8513 64.6251 52.5C64.6251 46.1487 59.4227 41 53.0053 41C46.5879 41 41.3855 46.1487 41.3855 52.5C41.3855 58.8513 46.5879 64 53.0053 64Z" stroke="black" stroke-width="2"/>
</g>
<defs>
<clipPath id="clip0">
<rect width="105.083" height="104" fill="white" transform="translate(0.968811)"/>
</clipPath>
</defs>
</svg>
